<svg version="1.0" xmlns="http://www.w3.org/2000/svg" width="933.333" height="933.333" viewBox="0 0 700 700"><path d="M327.8.4c-.1.2-4.2.6-8.9 1s-9.5.8-10.5 1c-1 .2-4.6.7-7.9 1.2-3.3.4-6.2.8-6.5.9-.3 0-2.7.4-5.5.9-8.7 1.3-32.6 7.3-44.5 11.1C159.1 43.8 87.9 102 44.6 179.4 29.3 206.8 16.8 238 10.4 265c-1.3 5.9-5.4 25.2-5.8 28.2-.3 2.1-.8 5.3-1.1 7.1-2.1 12.7-3 28.6-3 50.2 0 19.5.6 31.2 2 40.9.3 1.7.7 4.9.9 7.1 1 8.3 1.8 13.1 2.6 16.5.5 1.9 1.2 4.8 1.4 6.5 5.3 29.4 19.6 67.7 37.4 99.4 12.1 21.7 34.2 52.4 46.6 64.7 1.2 1.1 3.5 3.6 5.2 5.5 3.1 3.5 16.3 16.2 24.4 23.4 11.5 10.4 37 28.6 54 38.5 24.6 14.4 63.1 30.2 86.5 35.6.6.1 4.8 1.1 9.5 2.2 10.8 2.6 20 4.4 29.9 5.8 2.5.3 5.7.8 7.1 1 16.3 2.5 68.2 2.5 84.2-.1 1.3-.2 4.6-.7 7.3-1 7.4-1.1 8.7-1.3 12-1.9 1.7-.4 4.6-.9 6.5-1.2 13.2-2.1 51.5-13.7 65.1-19.7 3-1.3 7.4-3.2 9.9-4.3 16.6-7 42.8-22.1 60.5-34.8 52.9-38 94.4-90 119.6-150.4 7-16.7 15.4-43 18.5-57.7 1.6-7.5 5.4-30 6-35 .4-3.3.9-7.6 1.1-9.5.8-7 1-51.7.3-59.5-1.5-15.9-2.1-21-2.5-22.5-.2-.8-.7-3.5-1-6-1.3-10-7.1-34.8-10.7-46-10.8-33.8-22.9-59.7-41.3-88.5-4.2-6.5-19-26.9-22.9-31.3-1.3-1.5-4.3-5-6.6-7.7-2.3-2.8-6.6-7.5-9.5-10.5-34.7-36.3-72.8-62.8-118.1-82.3C462.1 17.3 430.7 8.2 406 4.5c-2.5-.4-5.4-.9-6.5-1.1-1-.2-4.9-.6-8.5-1-3.6-.3-7.8-.8-9.5-1.1-3.3-.5-53.1-1.3-53.7-.9zm50.2 42c1.9.2 6 .8 9 1.1 23.8 2.5 54.4 10.4 79.4 20.4 7 2.8 28.9 13.4 35.6 17.2 5 2.8 33.6 21.7 35.5 23.5 1.2 1.1 4.1 3.5 6.5 5.4 12.3 9.5 35.3 32.5 46.1 46 33.7 42.2 55.7 90.9 64.4 142.5 1.9 11.1 1.9 11.1 3.1 24.5 1.5 16.2.9 53.3-1 63.5-.2 1.1-.7 4.6-1.1 7.9-2.8 23.3-12.8 58-23 80.1-6.9 15-8.1 17.3-13.8 27.5-9.3 16.4-24.3 37.7-35.6 50.5-8.7 9.7-30.4 30.7-39.1 37.6-28.7 23-58.9 39.7-93.2 51.8-8.5 2.9-25.4 7.8-30.6 8.7-1.4.3-2.8.7-3.2.9-.5.3-14.4 2.9-22.5 4.1-13.2 2.1-26.7 2.9-45.5 2.9-18.3-.1-31.9-1-44-3-1.4-.2-5.6-.9-9.5-1.5-46.2-7.6-98.2-31.1-137-61.9-10.6-8.4-13.9-11.4-28-25.6C92 527.8 65.8 482 51.2 428c-2.2-7.9-5.6-25.2-6.7-33.3-.4-2.7-.8-5.7-1-6.7-1.9-10-2.6-49.2-1.1-65 4.9-52.2 20.3-96.9 49-141.5 2.8-4.4 5.4-8.5 5.9-9 .4-.6 3.4-4.6 6.8-9C150.2 102.7 219.3 59.9 293 46.6c16.5-3 17.4-3.1 31.5-4.2 5-.4 9.2-.8 9.3-1 .6-.4 40.4.4 44.2 1z"/><path d="M182 268c-23 4-22.3 37.9.8 40.5 2 .2 8 .7 13.2 1 37.3 2.3 75.3 21.7 99 50.5 2.5 3 4.8 5.7 5.1 6 1.2 1.1 8.7 12.7 11.6 18 6.5 12.1 12.6 28.8 14.7 40.5.3 1.7.8 4.1 1.1 5.5.5 2.7 1.2 10.2 1.9 21.1.7 10.2 4 16.1 11.4 20.2 4.1 2.3 12.4 2.5 17.4.4 8.5-3.6 12.6-11.6 12.2-24.1-.8-26.6-6.8-51-18.4-75.1-26.2-54.3-75.8-91.7-135.5-102.1-7.9-1.4-13.4-1.9-27.5-2.8-1.9-.1-5.1.1-7 .4zm328.8-.5c-.2.1-4.6.5-9.8.9-46.2 3.1-88.5 23.5-121.8 58.8l-3.4 3.6 4.9 8.3c4.7 8 11.4 21.4 14.3 28.8l1.4 3.4 1.5-2.4c1.5-2.1 12.1-14.9 14.6-17.4.5-.6 4.8-4.3 9.4-8.3 23.4-20.2 53.6-32.2 84.6-33.8 13.2-.7 18.1-2.2 22.9-7 9.7-9.7 6.7-26.4-5.9-32.7-2.5-1.2-11.9-2.9-12.7-2.2z"/></svg>