<?xml version="1.0" standalone="no"?>
<!DOCTYPE svg PUBLIC "-//W3C//DTD SVG 20010904//EN"
 "http://www.w3.org/TR/2001/REC-SVG-20010904/DTD/svg10.dtd">
<svg version="1.0" xmlns="http://www.w3.org/2000/svg"
 width="700.000000pt" height="700.000000pt" viewBox="0 0 700.000000 700.000000"
 preserveAspectRatio="xMidYMid meet">
<metadata>
Created by potrace 1.14, written by Peter Selinger 2001-2017
</metadata>
<g transform="translate(0.000000,700.000000) scale(0.100000,-0.100000)"
fill="#000000" stroke="none">
<path d="M3278 6996 c-1 -2 -42 -6 -89 -10 -47 -4 -95 -8 -105 -10 -10 -2 -46
-7 -79 -12 -33 -4 -62 -8 -65 -9 -3 0 -27 -4 -55 -9 -87 -13 -326 -73 -445
-111 -849 -273 -1561 -855 -1994 -1629 -153 -274 -278 -586 -342 -856 -13 -59
-54 -252 -58 -282 -3 -21 -8 -53 -11 -71 -21 -127 -30 -286 -30 -502 0 -195 6
-312 20 -409 3 -17 7 -49 9 -71 10 -83 18 -131 26 -165 5 -19 12 -48 14 -65
53 -294 196 -677 374 -994 121 -217 342 -524 466 -647 12 -11 35 -36 52 -55
31 -35 163 -162 244 -234 115 -104 370 -286 540 -385 246 -144 631 -302 865
-356 6 -1 48 -11 95 -22 108 -26 200 -44 299 -58 25 -3 57 -8 71 -10 163 -25
682 -25 842 1 13 2 46 7 73 10 74 11 87 13 120 19 17 4 46 9 65 12 132 21 515
137 651 197 30 13 74 32 99 43 166 70 428 221 605 348 529 380 944 900 1196
1504 70 167 154 430 185 577 16 75 54 300 60 350 4 33 9 76 11 95 8 70 10 517
3 595 -15 159 -21 210 -25 225 -2 8 -7 35 -10 60 -13 100 -71 348 -107 460
-108 338 -229 597 -413 885 -42 65 -190 269 -229 313 -13 15 -43 50 -66 77
-23 28 -66 75 -95 105 -347 363 -728 628 -1181 823 -243 104 -557 195 -804
232 -25 4 -54 9 -65 11 -10 2 -49 6 -85 10 -36 3 -78 8 -95 11 -33 5 -531 13
-537 9z m502 -420 c19 -2 60 -8 90 -11 238 -25 544 -104 794 -204 70 -28 289
-134 356 -172 50 -28 336 -217 355 -235 12 -11 41 -35 65 -54 123 -95 353
-325 461 -460 337 -422 557 -909 644 -1425 19 -111 19 -111 31 -245 15 -162 9
-533 -10 -635 -2 -11 -7 -46 -11 -79 -28 -233 -128 -580 -230 -801 -69 -150
-81 -173 -138 -275 -93 -164 -243 -377 -356 -505 -87 -97 -304 -307 -391 -376
-287 -230 -589 -397 -932 -518 -85 -29 -254 -78 -306 -87 -14 -3 -28 -7 -32
-9 -5 -3 -144 -29 -225 -41 -132 -21 -267 -29 -455 -29 -183 1 -319 10 -440
30 -14 2 -56 9 -95 15 -462 76 -982 311 -1370 619 -106 84 -139 114 -280 256
-385 387 -647 845 -793 1385 -22 79 -56 252 -67 333 -4 27 -8 57 -10 67 -19
100 -26 492 -11 650 49 522 203 969 490 1415 28 44 54 85 59 90 4 6 34 46 68
90 461 608 1152 1036 1889 1169 165 30 174 31 315 42 50 4 92 8 93 10 6 4 404
-4 442 -10z"/>
<path d="M1820 4320 c-230 -40 -223 -379 8 -405 20 -2 80 -7 132 -10 373 -23
753 -217 990 -505 25 -30 48 -57 51 -60 12 -11 87 -127 116 -180 65 -121 126
-288 147 -405 3 -17 8 -41 11 -55 5 -27 12 -102 19 -211 7 -102 40 -161 114
-202 41 -23 124 -25 174 -4 85 36 126 116 122 241 -8 266 -68 510 -184 751
-262 543 -758 917 -1355 1021 -79 14 -134 19 -275 28 -19 1 -51 -1 -70 -4z"/>
<path d="M5108 4325 c-2 -1 -46 -5 -98 -9 -462 -31 -885 -235 -1218 -588 l-34
-36 49 -83 c47 -80 114 -214 143 -288 l14 -34 15 24 c15 21 121 149 146 174 5
6 48 43 94 83 234 202 536 322 846 338 132 7 181 22 229 70 97 97 67 264 -59
327 -25 12 -119 29 -127 22z"/>
</g>
</svg>
